<svg xmlns="http://www.w3.org/2000/svg" width="1378" height="507" version="1"><path d="M20 486L397 20l379 467-239-223-257 90 217-127-101-93z"/><path d="M50 474l346-313 76 65-74-32zm701 7L534 285l-272 89 269-65zM731 126h-62l-12 28h-32l60-134h31l60 134h-33zm-9-24l-22-51-21 51zm78-82h61q22 0 39 8 16 9 26 24 9 15 9 35t-9 36q-10 15-26 23-17 8-39 8h-61zm59 109q21 0 33-11 12-12 12-31t-12-30q-12-11-33-11h-28v83zm232 25V74l-40 66h-14l-39-65v79h-29V20h25l51 84 49-84h26v134zm71-134h31v134h-31zm196 0v134h-25l-67-81v81h-31V20h26l66 82V20z"/></svg>