<svg xmlns="http://www.w3.org/2000/svg" viewBox="0 0 100 100"><path d="M89.6 21H86c-1.5.3-3.1-.1-4.7-.2l.3-1.4c-.3 0-.6 0-1-.2-.2-1 0-2-.1-2.9h-.6v3.3c-.5-.3-.7-.9-1.3-.8H63.3c-.8 0-1.4-.5-2-1l-.3-1.4c-.5.6-.5 1.4-.7 2.2-1.2.2-2.4.9-3.6 1-.2-.7-.3-1.4-.3-2.2.6-.3 1.3-.5 1.9-1 .6-1.9-.1-3.8-.5-5.7-1.3-1-2.8-1.8-4.3-2.4h-2.2c-1.5.5-3 1.3-3.8 2.7a8 8 0 0 0-.7 7l-.4.3c-1.5-1-3.4-.5-4.8.4-2 1.5-3 4-3.5 6.4-.4 2-.2 4.1 0 6.2l-2.4.3c-.4 0-.8.1-.9.6-.2 1.6 0 3.3-.4 4.9-.2 1-.3 2-.3 3.1l2.8.6c-.7.3-1.4.5-1.8 1.1-.4 2.6.5 5.2.4 7.9-.4.3-1 .7-1.2 1.4-.2.7.2 1.5 0 2.2 0 .9.2 1.7.4 2.5.3.7 0 1.4 0 2-.3 1.8-.6 3.5-.7 5.3 0 1 .2 2 0 2.8-1 2.2-2.7 4.1-3.5 6.4-.4 1-.2 2.2-.8 3.2-.5 1.1-1.3 2.3-1.3 3.6 0 1 .7 1.7.4 2.6l-1.4 5.6a6.8 6.8 0 0 0 0 3.8c.5.3 1 .3 1.6.5H31l2.1-.3c.2-1 0-2-.4-2.8a10 10 0 0 1 1.1-6.7c.4-.5 1.1-.7 1.4-1.3l1-2.7c.5-1.3 1.3-2.5 1.6-3.9.2-.7 0-1.5 0-2.2.2-.8.6-1.7 1.2-2.3.8-.7 1.2-2 2-2.6.7-.5.7-1.3.8-2l.8-2.7c.5-1.2.8-2.5 1.7-3.4a5 5 0 0 0 1.1-2.3c.4.7.7 1.5 1.2 2 .7.4 1.7.2 2 1 1.2 1.7 1.3 2.7 2.4 4.4.6 1.1 1.9.9 2.9.9.5.8 1.2 1 1 2 0 1-1 1.8-.8 2.9 0 2.2.2 4.4.8 6.5.2 1 .7 2 .7 3 0 1.2-.2 3.1-.4 4.3-.6 1.6-1 3.2-1 5 1.3.7 3 0 4.4.4 1.5.5 3.2.7 4.9.7l3-.3c0-.6.2-1.2 0-1.7-1-1-2.3-1-3.3-1.7-.8-.7-1.5-1.6-2.2-2.5-.6-.7.2-1.6.2-2.5 0-1.3 0-2.6.5-3.8.3-1 .2-2 0-3-.2-1.3.2-2.5.3-3.7l.4-5c0-1-.3-1.8-.5-2.7-.1-.9-1-1.3-1.2-2.1-1.3-3.8-2.6-7-5.3-10-1-1-1.6-2.8-1-4.2l1.8.5a6 6 0 0 0 1.4-2.9l.2-3.4c0-1.2.3-2.5 0-3.7-.2-.8-1-1.2-1.7-1.6l.5-1.8c2 1 4 2.5 6.3 2.9.7 0 1.3.4 2 .1.8-.4 1.5-1.1 2.2-1.7 1.4-1 1.2-3 1.7-4.5l1.4-.6c-.3-1.3-.9-2.7-.7-4.1.6-.8 1.3-1.2 1.9-2 .4-.5 1.1-.7 1.8-.7h6c0-.3-.2.3-.1 0 2 .1 4.1-.3 6.2 0 1.3.2 3 0 4.3 0l-.1-2zM64 28.3c-.4-.7-1-1.4-1.1-2.2l.2-.3h2.6L64 28.3zm-.2-2.7c.6-.3.8-1 .9-1.5H66v1.2c-.7.2-1.4.2-2.2.3zm0 0"/></svg>
