<svg xmlns="http://www.w3.org/2000/svg" version="1" viewBox="0 0 800 800"><path d="M22 633l377-466 379 467-239-223-257 90 217-127-101-93z"/><path d="M52 621l346-313 76 65-74-32z"/><path d="M753 628L536 432l-272 89 269-65z"/><path d="M199.97 680.93h-27.73l-5.3 12.8h-14.16L179.4 634h13.66l26.7 59.73h-14.5zm-4.35-10.5l-9.47-22.86-9.48 22.87z"/><path d="M245.97 694.42q-5.72 0-11.18-1.37-5.46-1.45-8.7-3.58l4.44-9.56q3.07 1.96 7.42 3.24 4.35 1.2 8.53 1.2 8.45 0 8.45-4.18 0-1.97-2.3-2.82-2.3-.85-7.09-1.45-5.63-.85-9.3-1.96-3.67-1.11-6.4-3.93-2.64-2.82-2.64-8.02 0-4.35 2.47-7.68 2.56-3.41 7.34-5.3 4.87-1.87 11.44-1.87 4.86 0 9.64 1.11 4.86 1.02 8.02 2.9l-4.44 9.47q-6.06-3.4-13.22-3.4-4.27 0-6.4 1.19-2.14 1.19-2.14 3.07 0 2.13 2.3 2.98 2.31.86 7.35 1.63 5.63.93 9.21 2.04 3.59 1.03 6.23 3.84 2.65 2.82 2.65 7.85 0 4.27-2.56 7.6t-7.51 5.2q-4.87 1.8-11.6 1.8z"/><path d="M304.05 694.42q-7.34 0-13.23-3-5.8-3.06-9.13-8.44-3.24-5.37-3.24-12.2 0-6.83 3.24-12.2 3.33-5.38 9.13-8.37 5.89-3.07 13.23-3.07 7.25 0 12.63 3.07 5.46 2.99 7.93 8.62l-10.32 5.55q-3.59-6.32-10.33-6.32-5.2 0-8.62 3.42-3.41 3.41-3.41 9.3 0 5.89 3.41 9.3 3.42 3.41 8.62 3.41 6.83 0 10.33-6.31l10.32 5.63q-2.47 5.46-7.93 8.53-5.38 3.08-12.63 3.08z"/><path d="M382.66 670.95q0 .26-.25 3.58h-34.73q.94 4.27 4.43 6.74 3.5 2.48 8.7 2.48 3.6 0 6.32-1.02 2.82-1.11 5.2-3.42l7.1 7.68q-6.5 7.43-18.95 7.43-7.77 0-13.74-3-5.98-3.06-9.22-8.44-3.24-5.37-3.24-12.2 0-6.74 3.16-12.12 3.24-5.46 8.79-8.45 5.63-3.07 12.54-3.07 6.74 0 12.2 2.9 5.46 2.9 8.54 8.37 3.15 5.37 3.15 12.54zm-23.8-13.74q-4.53 0-7.6 2.56-3.07 2.56-3.75 7h22.6q-.67-4.35-3.75-6.91-3.07-2.65-7.5-2.65z"/><path d="M425.43 647.14q8.53 0 13.74 5.12 5.29 5.12 5.29 15.2v26.27h-13.31V669.5q0-5.46-2.4-8.1-2.38-2.74-6.9-2.74-5.04 0-8.03 3.16-2.98 3.07-2.98 9.21v22.7h-13.31v-45.9h12.71v5.37q2.65-2.9 6.57-4.44 3.93-1.62 8.62-1.62z"/><path d="M492.14 691.51q-1.97 1.46-4.87 2.22-2.81.69-5.97.69-8.2 0-12.72-4.19-4.43-4.18-4.43-12.28v-18.86h-7.09v-10.24h7.09v-11.18h13.3v11.18h11.44v10.24h-11.43v18.69q0 2.9 1.45 4.52 1.54 1.53 4.27 1.53 3.15 0 5.37-1.7z"/><path d="M511.56 694.42q-3.5 0-5.89-2.4-2.39-2.38-2.39-5.97 0-3.67 2.4-5.88 2.38-2.3 5.88-2.3t5.89 2.3q2.39 2.21 2.39 5.88 0 3.59-2.4 5.98-2.38 2.39-5.88 2.39z"/><path d="M581.55 647.82v38.23q0 12.63-6.57 18.78-6.57 6.14-19.2 6.14-6.65 0-12.63-1.62-5.97-1.62-9.9-4.7l5.3-9.55q2.9 2.39 7.33 3.75 4.44 1.45 8.88 1.45 6.91 0 10.15-3.15 3.33-3.08 3.33-9.39v-1.96q-5.2 5.71-14.5 5.71-6.32 0-11.61-2.73-5.2-2.81-8.28-7.85-3.07-5.03-3.07-11.6 0-6.57 3.07-11.6 3.07-5.04 8.28-7.77 5.29-2.82 11.6-2.82 9.99 0 15.2 6.57v-5.89zm-25.17 32.77q5.29 0 8.62-3.07 3.41-3.16 3.41-8.2 0-5.03-3.41-8.1-3.33-3.16-8.62-3.16-5.3 0-8.7 3.16-3.42 3.07-3.42 8.1 0 5.04 3.42 8.2 3.4 3.07 8.7 3.07z"/><path d="M647.22 647.82v38.23q0 12.63-6.57 18.78-6.57 6.14-19.2 6.14-6.66 0-12.63-1.62-5.97-1.62-9.9-4.7l5.3-9.55q2.9 2.39 7.33 3.75 4.44 1.45 8.87 1.45 6.92 0 10.16-3.15 3.33-3.08 3.33-9.39v-1.96q-5.2 5.71-14.5 5.71-6.32 0-11.61-2.73-5.21-2.81-8.28-7.85-3.07-5.03-3.07-11.6 0-6.57 3.07-11.6 3.07-5.04 8.28-7.77 5.29-2.82 11.6-2.82 9.98 0 15.19 6.57v-5.89zm-25.17 32.77q5.29 0 8.61-3.07 3.42-3.16 3.42-8.2 0-5.03-3.42-8.1-3.32-3.16-8.61-3.16-5.3 0-8.7 3.16-3.42 3.07-3.42 8.1 0 5.04 3.41 8.2 3.42 3.07 8.7 3.07z"/></svg>
