<svg xmlns="http://www.w3.org/2000/svg" viewBox="0 0 100 100"><path d="M50 4A46.2 46.2 0 0 0 5.7 37.4 2 2 0 0 0 7.3 40l26.5 3.8a2 2 0 0 0 2-1.1 16 16 0 0 1 11-8.3 2 2 0 0 0 1.6-1.6L52 6.3A2.1 2.1 0 0 0 50 4zm11.7 1.7A2 2 0 0 0 60 7.4l-3.7 26.4a2 2 0 0 0 1.1 2 16 16 0 0 1 8.3 11 2 2 0 0 0 1.6 1.6L93.7 52h.2c.5 0 1-.2 1.4-.5.4-.4.7-1 .7-1.6A46.2 46.2 0 0 0 61.7 5.7zM5.9 47.9c-.5 0-.9.2-1.2.5-.4.4-.7 1-.7 1.6a46.2 46.2 0 0 0 34 44.3 2 2 0 0 0 2-1.7l3.7-26.4a2 2 0 0 0-1.1-2 16 16 0 0 1-8.3-11 2 2 0 0 0-1.6-1.6L6.3 48h-.4zm60.3 8.4a2 2 0 0 0-2 1.1 16 16 0 0 1-11 8.3 2 2 0 0 0-1.6 1.6L48 93.7c0 .6.2 1.2.5 1.6.4.4 1 .7 1.6.7a46.2 46.2 0 0 0 44.3-33.4 2 2 0 0 0-1.6-2.5zm0 0"/></svg>
